<svg xmlns="http://www.w3.org/2000/svg" width="1em" height="1em" viewBox="0 0 256 315">
  <path d="M213.803 167.03c.435 47.76 41.74 63.857 42.197 64.055-.347 1.11-6.599 22.563-21.757 44.716-13.104 19.154-26.705 38.22-48.13 38.58-21.05.357-27.82-12.466-51.893-12.466-24.060 0-31.582 12.079-51.51 12.87-20.68.783-36.431-20.71-49.68-39.793-27.05-39.033-47.783-110.3-19.980-158.406 13.827-23.97 38.564-39.15 65.421-39.497 20.415-.335 39.683 13.747 52.155 13.747 12.47 0 35.914-16.998 60.556-14.493 10.303.427 39.278 4.162 57.86 31.37-1.49.922-34.540 20.182-34.24 60.317M174.24 50.199c11.005-13.345 18.444-31.878 16.43-50.324-15.886.637-35.08 10.578-46.494 23.92-10.218 11.77-19.152 30.695-16.688 48.828 17.712.798 35.76-8.57 46.752-22.424" fill="black"/>
</svg> 